<?xml version="1.0" encoding="utf-8"?>
<!-- Generator: Adobe Illustrator 25.4.1, SVG Export Plug-In . SVG Version: 6.00 Build 0)  -->
<svg version="1.1" id="Layer_1" xmlns="http://www.w3.org/2000/svg" xmlns:xlink="http://www.w3.org/1999/xlink" x="0px" y="0px"
	 viewBox="0 0 316.3 40.7" style="enable-background:new 0 0 316.3 40.7;" xml:space="preserve">
<style type="text/css">
	.st0{fill:#FFFFFF;}
</style>
<path class="st0" d="M63.8,25.7l5.9-12.8l5.6,12.8L63.8,25.7z M57.2,40.2l4.2-9.2h16.2l4,9.2h6.2l-18-40.1L51.2,40.2H57.2z"/>
<polygon class="st0" points="96.4,2.5 96.4,7.8 105.1,7.8 105.1,40.2 110.8,40.2 110.8,7.8 119.5,7.8 119.5,2.5 "/>
<polygon class="st0" points="140.2,2.5 134.5,2.5 134.5,40.2 140.2,40.2 140.2,22.6 156.5,22.6 156.5,40.2 162.2,40.2 162.2,2.5 
	156.5,2.5 156.5,17.2 140.2,17.2 "/>
<polygon class="st0" points="181.2,2.5 181.2,40.2 198,40.2 198,34.8 186.9,34.8 186.9,2.5 "/>
<polygon class="st0" points="234.2,2.5 213.4,2.5 213.4,40.2 234.2,40.2 234.2,34.8 219.1,34.8 219.1,22.2 233.8,22.2 233.8,16.9 
	219.1,16.9 219.1,7.8 234.2,7.8 "/>
<polygon class="st0" points="270.7,2.5 247.7,2.5 247.7,7.8 256.4,7.8 256.4,40.2 262.1,40.2 262.1,7.8 270.7,7.8 "/>
<path class="st0" d="M298.2,12.9l5.6,12.8h-11.5L298.2,12.9z M285.8,40.2L290,31h16.2l4,9.2h6.2l-18-40.1l-18.7,40.1H285.8z"/>
<path class="st0" d="M20.5,20.3L17.1,32l-6.2,2.5L20.5,20.3L10.4,27L4,24.9L20.5,20.3L8.4,19l-3.5-5.7L20.5,20.3l-8.4-8.8l1-6.6
	L20.5,20.3L19.8,8.1l5-4.5L20.5,20.3l7.2-9.8l6.7-0.2L20.5,20.3l11.9-2.9l5.3,4.1L20.5,20.3l10.9,5.3l1.4,6.6L20.5,20.3l4.9,11.1
	l-3.2,5.9L20.5,20.3z M40.7,20.4C40.7,9.1,31.6,0,20.4,0C9.1,0,0,9.1,0,20.3c0,11.3,9.1,20.4,20.4,20.4c0,0,0,0,0,0
	C31.6,40.7,40.7,31.6,40.7,20.4"/>
</svg>
